<?xml version="1.0" encoding="UTF-8"?>
<svg width="95px" height="20px" viewBox="0 0 95 20" version="1.1" xmlns="http://www.w3.org/2000/svg" xmlns:xlink="http://www.w3.org/1999/xlink">
    <!-- Generator: Sketch 52.2 (67145) - http://www.bohemiancoding.com/sketch -->
    <title>color/main</title>
    <desc>Created with Sketch.</desc>
    <defs>
        <path d="M18.6071429,5 L10,13.75 L18.5357143,13.75 L18.5357143,19.2857143 L0,19.2857143 L0,15.2142857 L8.78571429,6.28571429 L1.10714286,6.28571429 L1.10714286,0.785714286 L18.6071429,0.785714286 L18.6071429,5 Z M27.9285714,19.2857143 L20.5714286,19.2857143 L20.5714286,0.785714286 L27.9285714,0.785714286 L27.9285714,19.2857143 Z M48.3928571,5 L39.7857143,13.75 L48.3214286,13.75 L48.3214286,19.2857143 L29.7857143,19.2857143 L29.7857143,15.2142857 L38.5714286,6.28571429 L30.8928571,6.28571429 L30.8928571,0.785714286 L48.3928571,0.785714286 L48.3928571,5 Z M71.1428571,10.0714286 C71.1428571,15.3928571 67.5357143,20 60.1071429,20 C54.3571429,20 49.5714286,16.7857143 49.5714286,10.1785714 C49.5714286,4.60714286 53.1785714,0 60.3571429,0 C67.7857143,0 71.1428571,4.64285714 71.1428571,10.0714286 Z M63.7142857,9.89285714 C63.7142857,6.28571429 62.25,5.17857143 60.2857143,5.17857143 C57.8571429,5.17857143 56.8928571,7.25 56.8928571,9.96428571 C56.8928571,12.6785714 57.75,14.8571429 60.3214286,14.8571429 C62.1071429,14.8571429 63.7142857,13.8571429 63.7142857,9.89285714 Z M94.2142857,10.0714286 C94.2142857,15.3928571 90.6071429,20 83.1785714,20 C77.4285714,20 72.6428571,16.7857143 72.6428571,10.1785714 C72.6428571,4.60714286 76.25,0 83.4285714,0 C90.8571429,0 94.2142857,4.64285714 94.2142857,10.0714286 Z M86.7857143,9.89285714 C86.7857143,6.28571429 85.3214286,5.17857143 83.3571429,5.17857143 C80.9285714,5.17857143 79.9642857,7.25 79.9642857,9.96428571 C79.9642857,12.6785714 80.8214286,14.8571429 83.3928571,14.8571429 C85.1785714,14.8571429 86.7857143,13.8571429 86.7857143,9.89285714 Z" id="path-1"></path>
    </defs>
    <g id="Symbols" stroke="none" stroke-width="1" fill="none" fill-rule="evenodd">
        <g id="ui/Logo">
            <g id="color/main">
                <mask id="mask-2" fill="white">
                    <use xlink:href="#path-1"></use>
                </mask>
                <use id="Mask" fill="#094856" xlink:href="#path-1"></use>
            </g>
        </g>
    </g>
</svg>